<?xml version="1.0" encoding="UTF-8"?>
<svg id="Layer_2" data-name="Layer 2" xmlns="http://www.w3.org/2000/svg" viewBox="0 0 142 142">
  <defs>
    <style>
      .cls-1 {
        fill: #231f20;
      }

      .cls-2 {
        fill: #e60013;
      }

      .cls-3 {
        fill: #ee2525;
      }
    </style>
  </defs>
  <circle class="cls-2" cx="71" cy="71" r="11.4"/>
  <path class="cls-3" d="M89.41,64.14c15-5.29,33.01-11.22,48.17-16.7-4.65-13.22-13.11-24.64-24.08-32.93-3.69,4.46-16.82,20.63-30.41,41.02,2.83,2.21,5.04,5.18,6.32,8.61Z"/>
  <path class="cls-2" d="M113.22,14.41l-30.6,40.7c3.15,2.3,5.57,5.51,6.92,9.24l47.99-17.02c-4.71-13.24-13.25-24.66-24.3-32.92Z"/>
  <path class="cls-1" d="M139.82,55.29l-23.33,8.02c.47,2.63.75,5.32.75,8.08,0,25.49-20.66,46.15-46.15,46.15s-46.15-20.66-46.15-46.15,20.66-46.15,46.15-46.15c7.5,0,14.56,1.79,20.81,4.97l14.97-20C96.35,4,84.1.4,71,.4,32.01.4.4,32.01.4,71s31.61,70.6,70.6,70.6,70.6-31.61,70.6-70.6c0-5.4-.63-10.65-1.78-15.71Z"/>
  <path class="cls-1" d="M90.65,72.21c-.53,10.41-9.11,18.69-19.65,18.69s-19.7-8.82-19.7-19.7,8.82-19.7,19.7-19.7c1.57,0,3.08.24,4.54.59l8.33-11.13c-1.53-.65-3.11-1.23-4.77-1.65-17.62-4.48-35.53,6.18-40.01,23.8-4.48,17.62,6.18,35.53,23.8,40.01,17.62,4.48,35.53-6.18,40.01-23.8.99-3.9,1.2-7.8.8-11.58l-13.05,4.49Z"/>
</svg>