<?xml version="1.0" encoding="UTF-8"?>
<svg id="Layer_2" data-name="Layer 2" xmlns="http://www.w3.org/2000/svg" viewBox="0 0 1270 142">
  <defs>
    <style>
      .cls-1 {
        fill: #231f20;
      }

      .cls-2 {
        fill: #e60013;
      }
    </style>
  </defs>
  <path class="cls-1" d="M186.01,38.36c0-9.22,8.24-16.47,22.36-16.47,12.55,0,24.91,4.9,37.26,14.12l12.94-18.24C244.65,6.59,228.76.51,208.76.51c-27.26,0-46.87,16.08-46.87,40.01,0,25.5,16.47,34.12,45.69,41.18,25.49,5.88,30.99,11.18,30.99,21.18,0,10.59-9.41,17.45-24.32,17.45-17.06,0-30.2-6.47-43.34-17.85l-14.51,17.26c16.47,14.71,36.28,21.96,57.27,21.96,28.83,0,49.03-15.3,49.03-41.18,0-22.94-15.1-33.34-44.12-40.4-26.28-6.28-32.55-10.98-32.55-21.77h0Z"/>
  <polygon class="cls-1" points="334.83 107.98 293.45 2.47 266.78 2.47 323.85 140.73 345.03 140.73 402.1 2.47 376.02 2.47 334.83 107.98 334.83 107.98"/>
  <circle class="cls-2" cx="72.7" cy="71.11" r="11.4"/>
  <path class="cls-2" d="M114.91,14.52l-30.6,40.7c3.15,2.3,5.57,5.51,6.92,9.24l47.99-17.02c-4.71-13.24-13.25-24.66-24.3-32.92Z"/>
  <path class="cls-1" d="M141.52,55.41l-23.33,8.02c.47,2.63.75,5.32.75,8.08,0,25.49-20.66,46.15-46.15,46.15s-46.15-20.66-46.15-46.15,20.66-46.15,46.15-46.15c7.5,0,14.56,1.79,20.81,4.97l14.97-20C98.05,4.11,85.8.51,72.7.51,33.71.51,2.1,32.12,2.1,71.11s31.61,70.6,70.6,70.6,70.6-31.61,70.6-70.6c0-5.4-.63-10.65-1.78-15.71Z"/>
  <path class="cls-1" d="M92.35,72.32c-.53,10.41-9.11,18.69-19.65,18.69s-19.7-8.82-19.7-19.7,8.82-19.7,19.7-19.7c1.57,0,3.08.24,4.54.59l8.33-11.13c-1.53-.65-3.11-1.23-4.77-1.65-17.62-4.48-35.53,6.18-40.01,23.8-4.48,17.62,6.18,35.53,23.8,40.01,17.62,4.48,35.53-6.18,40.01-23.8.99-3.9,1.2-7.8.8-11.58l-13.05,4.49Z"/>
  <path class="cls-1" d="M1113.41,96.57h76.52c.2-2.36.39-4.34.39-6.51,0-30.17-16.76-56.21-49.9-56.21-29.78,0-50.88,24.46-50.88,54.44,0,32.34,23.27,54.23,53.45,54.23,19.13,0,32.74-7.69,42.6-19.52l-14.01-12.42c-8.28,8.09-16.57,12.42-28.2,12.42-15.38,0-27.22-9.47-29.98-26.43h0ZM1113.21,80.8c2.17-16.17,12.42-27.41,27.02-27.41,15.78,0,24.85,12.03,26.43,27.41h-53.45Z"/>
  <path class="cls-1" d="M530.21,38.59c0-9.27,8.28-16.57,22.48-16.57,12.62,0,25.05,4.93,37.47,14.2l13.02-18.34c-14-11.24-29.98-17.36-50.09-17.36-27.41,0-47.13,16.18-47.13,40.23,0,25.64,16.57,34.32,45.95,41.42,25.64,5.91,31.16,11.24,31.16,21.3,0,10.65-9.47,17.55-24.45,17.55-17.16,0-30.37-6.51-43.59-17.95l-14.59,17.35c16.57,14.79,36.48,22.09,57.59,22.09,28.99,0,49.3-15.38,49.3-41.42,0-23.07-15.18-33.53-44.37-40.63-26.43-6.31-32.74-11.04-32.74-21.89h0Z"/>
  <path class="cls-1" d="M1234.62,102.88c0-27.61,14.6-41.22,35.5-41.22h1.38v-25.24c-18.34-.79-30.37,9.86-36.88,25.44v-23.47h-23.86v104.13h23.86v-39.64h0Z"/>
  <path class="cls-1" d="M721.84,123l-14.4-14.2c-7.49,7.69-15.78,13.02-27.02,13.02-18.34,0-31.16-14.99-31.16-33.73s12.62-33.33,29.98-33.33c12.03,0,19.72,5.32,27.02,13.02l14.79-15.98c-9.66-10.65-21.89-17.95-41.62-17.95-31.16,0-54.04,24.85-54.04,54.63s22.88,54.04,53.84,54.04c20.31,0,32.34-8.09,42.6-19.52h0Z"/>
  <path class="cls-1" d="M999.48,83.76c0-16.18,9.67-25.84,23.47-25.84s22.29,9.27,22.29,25.44v59.17h23.86v-66.27c0-24.26-13.61-40.04-37.08-40.04-16.17,0-25.83,8.48-32.54,18.34v-16.17h-23.86v104.13h23.86v-58.77h0Z"/>
  <path class="cls-1" d="M881.05,83.76c0-16.17,9.67-25.84,23.47-25.84s22.29,9.27,22.29,25.44v59.17h23.86v-66.27c0-24.26-13.61-40.04-37.08-40.04-16.17,0-25.83,8.48-32.54,18.34v-16.17h-23.86v104.13h23.86v-58.77h0Z"/>
  <path class="cls-1" d="M832.23,140.36v-61.73c0-27.81-14.99-43.98-45.75-43.98-16.96,0-28.2,3.55-39.64,8.68l6.51,19.13c9.47-3.95,18.15-6.51,29.78-6.51,16.57,0,25.64,7.89,25.64,22.29v2.56c-8.09-2.56-16.17-4.34-28.8-4.34-24.26,0-42.2,11.04-42.2,33.53v.39c0,20.9,17.35,32.15,37.08,32.15,15.78,0,26.63-6.51,33.72-14.99v12.82h23.67ZM809.15,102.69c0,13.02-11.84,21.89-27.61,21.89-11.24,0-20.12-5.53-20.12-15.38v-.39c0-10.65,8.88-16.77,23.87-16.77,9.27,0,17.75,1.77,23.86,4.14v6.51h0Z"/>
  <rect class="cls-1" x="415.16" y="59.03" width="55" height="26"/>
</svg>