<?xml version="1.0" encoding="UTF-8"?>
<svg id="Layer_2" data-name="Layer 2" xmlns="http://www.w3.org/2000/svg" viewBox="0 0 400 142">
  <defs>
    <style>
      .cls-1 {
        fill: #ed2927;
      }

      .cls-2 {
        fill: #e31e26;
      }
    </style>
  </defs>
  <path d="M183.91,39.25c0-9.22,8.24-16.47,22.36-16.47,12.55,0,24.91,4.9,37.26,14.12l12.94-18.24c-13.92-11.18-29.81-17.26-49.81-17.26-27.26,0-46.87,16.08-46.87,40.01,0,25.5,16.47,34.12,45.69,41.18,25.49,5.88,30.99,11.18,30.99,21.18,0,10.59-9.41,17.45-24.32,17.45-17.06,0-30.2-6.47-43.34-17.85l-14.51,17.26c16.47,14.71,36.28,21.96,57.27,21.96,28.83,0,49.03-15.3,49.03-41.18,0-22.94-15.1-33.34-44.12-40.4-26.28-6.28-32.55-10.98-32.55-21.77h0Z"/>
  <polygon points="332.73 108.87 291.36 3.36 264.68 3.36 321.75 141.62 342.93 141.62 400 3.36 373.92 3.36 332.73 108.87 332.73 108.87"/>
  <circle class="cls-2" cx="70.6" cy="72" r="11.4"/>
  <path class="cls-1" d="M89.01,65.14c15-5.29,33.01-11.22,48.17-16.7-4.65-13.22-13.11-24.64-24.08-32.93-3.69,4.46-16.82,20.63-30.41,41.02,2.83,2.21,5.04,5.18,6.32,8.61Z"/>
  <path class="cls-2" d="M112.82,15.41l-30.6,40.7c3.15,2.3,5.57,5.51,6.92,9.24l47.99-17.02c-4.71-13.24-13.25-24.66-24.3-32.92Z"/>
  <path d="M139.42,56.29l-23.33,8.02c.47,2.63.75,5.32.75,8.08,0,25.49-20.66,46.15-46.15,46.15s-46.15-20.66-46.15-46.15,20.66-46.15,46.15-46.15c7.5,0,14.56,1.79,20.81,4.97l14.97-20c-10.51-6.22-22.76-9.82-35.87-9.82C31.61,1.4,0,33.01,0,72s31.61,70.6,70.6,70.6,70.6-31.61,70.6-70.6c0-5.4-.63-10.65-1.78-15.71Z"/>
  <path d="M90.25,73.21c-.53,10.41-9.11,18.69-19.65,18.69s-19.7-8.82-19.7-19.7,8.82-19.7,19.7-19.7c1.57,0,3.08.24,4.54.59l8.33-11.13c-1.53-.65-3.11-1.23-4.77-1.65-17.62-4.48-35.53,6.18-40.01,23.8-4.48,17.62,6.18,35.53,23.8,40.01,17.62,4.48,35.53-6.18,40.01-23.8.99-3.9,1.2-7.8.8-11.58l-13.05,4.49Z"/>
</svg>